<mxfile host="app.diagrams.net" modified="2024-05-09T12:30:41.847Z" agent="Mozilla/5.0 (Windows NT 10.0; Win64; x64; rv:125.0) Gecko/20100101 Firefox/125.0" etag="-G4kDpo8Sp9EGm7vwXrg" version="24.3.1" type="device">
  <diagram name="Page-1" id="97916047-d0de-89f5-080d-49f4d83e522f">
    <mxGraphModel dx="1562" dy="816" grid="1" gridSize="10" guides="1" tooltips="1" connect="1" arrows="1" fold="1" page="1" pageScale="1.5" pageWidth="1169" pageHeight="827" background="none" math="0" shadow="0">
      <root>
        <mxCell id="0" />
        <mxCell id="1" parent="0" />
        <mxCell id="12" value="Conv2D(32)" style="rounded=1;fillColor=#169fda;strokeColor=default;shadow=0;gradientColor=none;fontStyle=1;fontColor=#FFFFFF;fontSize=14;" parent="1" vertex="1">
          <mxGeometry x="240" y="630" width="140" height="30" as="geometry" />
        </mxCell>
        <mxCell id="16" value="MaxPooling2D" style="rounded=1;fillColor=#169fda;strokeColor=default;shadow=0;gradientColor=none;fontStyle=1;fontColor=#FFFFFF;fontSize=14;" parent="1" vertex="1">
          <mxGeometry x="240" y="750" width="140" height="30" as="geometry" />
        </mxCell>
        <mxCell id="21" value="Conv2D(64)" style="rounded=1;fillColor=#169fda;strokeColor=default;shadow=0;gradientColor=none;fontStyle=1;fontColor=#FFFFFF;fontSize=14;" parent="1" vertex="1">
          <mxGeometry x="240" y="810" width="140" height="30" as="geometry" />
        </mxCell>
        <mxCell id="22" value="Flatten" style="rounded=1;fillColor=#169fda;strokeColor=default;shadow=0;gradientColor=none;fontStyle=1;fontColor=#FFFFFF;fontSize=14;" parent="1" vertex="1">
          <mxGeometry x="240" y="990" width="140" height="30" as="geometry" />
        </mxCell>
        <mxCell id="26" value="Dense(128)" style="rounded=1;fillColor=#169fda;strokeColor=default;shadow=0;gradientColor=none;fontStyle=1;fontColor=#FFFFFF;fontSize=14;" parent="1" vertex="1">
          <mxGeometry x="240" y="1020" width="140" height="30" as="geometry" />
        </mxCell>
        <mxCell id="27" value="Dense(3)" style="rounded=1;fillColor=#169fda;strokeColor=default;shadow=0;gradientColor=none;fontStyle=1;fontColor=#FFFFFF;fontSize=14;" parent="1" vertex="1">
          <mxGeometry x="240" y="1080" width="140" height="30" as="geometry" />
        </mxCell>
        <mxCell id="SRwk9jK4E6UFYqEUvpnX-55" value="MaxPooling2D" style="rounded=1;fillColor=#169fda;strokeColor=default;shadow=0;gradientColor=none;fontStyle=1;fontColor=#FFFFFF;fontSize=14;" vertex="1" parent="1">
          <mxGeometry x="240" y="930" width="140" height="30" as="geometry" />
        </mxCell>
        <mxCell id="SRwk9jK4E6UFYqEUvpnX-56" value="Rescaling(1/255)" style="rounded=1;fillColor=#169fda;strokeColor=default;shadow=0;gradientColor=none;fontStyle=1;fontColor=#FFFFFF;fontSize=14;" vertex="1" parent="1">
          <mxGeometry x="410" y="600" width="140" height="30" as="geometry" />
        </mxCell>
        <mxCell id="SRwk9jK4E6UFYqEUvpnX-57" value="Conv2D(32)" style="rounded=1;fillColor=#169fda;strokeColor=default;shadow=0;gradientColor=none;fontStyle=1;fontColor=#FFFFFF;fontSize=14;" vertex="1" parent="1">
          <mxGeometry x="410" y="630" width="140" height="30" as="geometry" />
        </mxCell>
        <mxCell id="SRwk9jK4E6UFYqEUvpnX-58" value="MaxPooling2D" style="rounded=1;fillColor=#169fda;strokeColor=default;shadow=0;gradientColor=none;fontStyle=1;fontColor=#FFFFFF;fontSize=14;" vertex="1" parent="1">
          <mxGeometry x="410" y="750" width="140" height="30" as="geometry" />
        </mxCell>
        <mxCell id="SRwk9jK4E6UFYqEUvpnX-59" value="Conv2D(64)" style="rounded=1;fillColor=#169fda;strokeColor=default;shadow=0;gradientColor=none;fontStyle=1;fontColor=#FFFFFF;fontSize=14;" vertex="1" parent="1">
          <mxGeometry x="410" y="810" width="140" height="30" as="geometry" />
        </mxCell>
        <mxCell id="SRwk9jK4E6UFYqEUvpnX-60" value="Flatten" style="rounded=1;fillColor=#169fda;strokeColor=default;shadow=0;gradientColor=none;fontStyle=1;fontColor=#FFFFFF;fontSize=14;" vertex="1" parent="1">
          <mxGeometry x="410" y="990" width="140" height="30" as="geometry" />
        </mxCell>
        <mxCell id="SRwk9jK4E6UFYqEUvpnX-61" value="Dense(128)" style="rounded=1;fillColor=#169fda;strokeColor=default;shadow=0;gradientColor=none;fontStyle=1;fontColor=#FFFFFF;fontSize=14;" vertex="1" parent="1">
          <mxGeometry x="410" y="1020" width="140" height="30" as="geometry" />
        </mxCell>
        <mxCell id="SRwk9jK4E6UFYqEUvpnX-62" value="Dense(3)" style="rounded=1;fillColor=#169fda;strokeColor=default;shadow=0;gradientColor=none;fontStyle=1;fontColor=#FFFFFF;fontSize=14;" vertex="1" parent="1">
          <mxGeometry x="410" y="1080" width="140" height="30" as="geometry" />
        </mxCell>
        <mxCell id="SRwk9jK4E6UFYqEUvpnX-63" value="MaxPooling2D" style="rounded=1;fillColor=#169fda;strokeColor=default;shadow=0;gradientColor=none;fontStyle=1;fontColor=#FFFFFF;fontSize=14;" vertex="1" parent="1">
          <mxGeometry x="410" y="930" width="140" height="30" as="geometry" />
        </mxCell>
        <mxCell id="SRwk9jK4E6UFYqEUvpnX-64" value="Initial Model" style="rounded=1;fillColor=#f8cecc;strokeColor=#b85450;shadow=0;fontStyle=1;fontSize=14;" vertex="1" parent="1">
          <mxGeometry x="250" y="550" width="120" height="30" as="geometry" />
        </mxCell>
        <mxCell id="SRwk9jK4E6UFYqEUvpnX-66" value="BatchNormalization" style="rounded=1;fillColor=#169fda;strokeColor=default;shadow=0;gradientColor=none;fontStyle=1;fontColor=#FFFFFF;fontSize=14;" vertex="1" parent="1">
          <mxGeometry x="410" y="660" width="140" height="30" as="geometry" />
        </mxCell>
        <mxCell id="SRwk9jK4E6UFYqEUvpnX-67" value="BatchNormalization" style="rounded=1;fillColor=#169fda;strokeColor=default;shadow=0;gradientColor=none;fontStyle=1;fontColor=#FFFFFF;fontSize=14;" vertex="1" parent="1">
          <mxGeometry x="410" y="840" width="140" height="30" as="geometry" />
        </mxCell>
        <mxCell id="SRwk9jK4E6UFYqEUvpnX-69" value="Model V2" style="rounded=1;fillColor=#f8cecc;strokeColor=#b85450;shadow=0;fontStyle=1;fontSize=14;" vertex="1" parent="1">
          <mxGeometry x="420" y="550" width="120" height="30" as="geometry" />
        </mxCell>
        <mxCell id="SRwk9jK4E6UFYqEUvpnX-70" value="Rescaling(1/255)" style="rounded=1;fillColor=#169fda;strokeColor=default;shadow=0;gradientColor=none;fontStyle=1;fontColor=#FFFFFF;fontSize=14;" vertex="1" parent="1">
          <mxGeometry x="580" y="600" width="140" height="30" as="geometry" />
        </mxCell>
        <mxCell id="SRwk9jK4E6UFYqEUvpnX-71" value="Conv2D(32, &quot;same&quot;)" style="rounded=1;fillColor=#169fda;strokeColor=default;shadow=0;gradientColor=none;fontStyle=1;fontColor=#FFFFFF;fontSize=14;" vertex="1" parent="1">
          <mxGeometry x="580" y="630" width="140" height="30" as="geometry" />
        </mxCell>
        <mxCell id="SRwk9jK4E6UFYqEUvpnX-72" value="MaxPooling2D" style="rounded=1;fillColor=#169fda;strokeColor=default;shadow=0;gradientColor=none;fontStyle=1;fontColor=#FFFFFF;fontSize=14;" vertex="1" parent="1">
          <mxGeometry x="580" y="750" width="140" height="30" as="geometry" />
        </mxCell>
        <mxCell id="SRwk9jK4E6UFYqEUvpnX-79" value="BatchNormalization" style="rounded=1;fillColor=#169fda;strokeColor=default;shadow=0;gradientColor=none;fontStyle=1;fontColor=#FFFFFF;fontSize=14;" vertex="1" parent="1">
          <mxGeometry x="580" y="660" width="140" height="30" as="geometry" />
        </mxCell>
        <mxCell id="SRwk9jK4E6UFYqEUvpnX-81" value="Model V3" style="rounded=1;fillColor=#f8cecc;strokeColor=#b85450;shadow=0;fontStyle=1;fontSize=14;" vertex="1" parent="1">
          <mxGeometry x="590" y="550" width="120" height="30" as="geometry" />
        </mxCell>
        <mxCell id="SRwk9jK4E6UFYqEUvpnX-82" value="Conv2D(32, &quot;same&quot;)" style="rounded=1;fillColor=#169fda;strokeColor=default;shadow=0;gradientColor=none;fontStyle=1;fontColor=#FFFFFF;fontSize=14;" vertex="1" parent="1">
          <mxGeometry x="580" y="690" width="140" height="30" as="geometry" />
        </mxCell>
        <mxCell id="SRwk9jK4E6UFYqEUvpnX-83" value="BatchNormalization" style="rounded=1;fillColor=#169fda;strokeColor=default;shadow=0;gradientColor=none;fontStyle=1;fontColor=#FFFFFF;fontSize=14;" vertex="1" parent="1">
          <mxGeometry x="580" y="720" width="140" height="30" as="geometry" />
        </mxCell>
        <mxCell id="SRwk9jK4E6UFYqEUvpnX-84" value="Conv2D(64, &quot;same&quot;)" style="rounded=1;fillColor=#169fda;strokeColor=default;shadow=0;gradientColor=none;fontStyle=1;fontColor=#FFFFFF;fontSize=14;" vertex="1" parent="1">
          <mxGeometry x="580" y="810" width="140" height="30" as="geometry" />
        </mxCell>
        <mxCell id="SRwk9jK4E6UFYqEUvpnX-85" value="BatchNormalization" style="rounded=1;fillColor=#169fda;strokeColor=default;shadow=0;gradientColor=none;fontStyle=1;fontColor=#FFFFFF;fontSize=14;" vertex="1" parent="1">
          <mxGeometry x="580" y="840" width="140" height="30" as="geometry" />
        </mxCell>
        <mxCell id="SRwk9jK4E6UFYqEUvpnX-86" value="Conv2D(64, &quot;same&quot;)" style="rounded=1;fillColor=#169fda;strokeColor=default;shadow=0;gradientColor=none;fontStyle=1;fontColor=#FFFFFF;fontSize=14;" vertex="1" parent="1">
          <mxGeometry x="580" y="870" width="140" height="30" as="geometry" />
        </mxCell>
        <mxCell id="SRwk9jK4E6UFYqEUvpnX-87" value="BatchNormalization" style="rounded=1;fillColor=#169fda;strokeColor=default;shadow=0;gradientColor=none;fontStyle=1;fontColor=#FFFFFF;fontSize=14;" vertex="1" parent="1">
          <mxGeometry x="580" y="900" width="140" height="30" as="geometry" />
        </mxCell>
        <mxCell id="SRwk9jK4E6UFYqEUvpnX-89" value="MaxPooling2D" style="rounded=1;fillColor=#169fda;strokeColor=default;shadow=0;gradientColor=none;fontStyle=1;fontColor=#FFFFFF;fontSize=14;" vertex="1" parent="1">
          <mxGeometry x="580" y="930" width="140" height="30" as="geometry" />
        </mxCell>
        <mxCell id="SRwk9jK4E6UFYqEUvpnX-90" value="Flatten" style="rounded=1;fillColor=#169fda;strokeColor=default;shadow=0;gradientColor=none;fontStyle=1;fontColor=#FFFFFF;fontSize=14;" vertex="1" parent="1">
          <mxGeometry x="580" y="990" width="140" height="30" as="geometry" />
        </mxCell>
        <mxCell id="SRwk9jK4E6UFYqEUvpnX-91" value="Dense(128)" style="rounded=1;fillColor=#169fda;strokeColor=default;shadow=0;gradientColor=none;fontStyle=1;fontColor=#FFFFFF;fontSize=14;" vertex="1" parent="1">
          <mxGeometry x="580" y="1020" width="140" height="30" as="geometry" />
        </mxCell>
        <mxCell id="SRwk9jK4E6UFYqEUvpnX-92" value="Dense(3)" style="rounded=1;fillColor=#169fda;strokeColor=default;shadow=0;gradientColor=none;fontStyle=1;fontColor=#FFFFFF;fontSize=14;" vertex="1" parent="1">
          <mxGeometry x="580" y="1080" width="140" height="30" as="geometry" />
        </mxCell>
        <mxCell id="SRwk9jK4E6UFYqEUvpnX-93" value="Rescaling(1/255)" style="rounded=1;fillColor=#169fda;strokeColor=default;shadow=0;gradientColor=none;fontStyle=1;fontColor=#FFFFFF;fontSize=14;" vertex="1" parent="1">
          <mxGeometry x="750" y="600" width="140" height="30" as="geometry" />
        </mxCell>
        <mxCell id="SRwk9jK4E6UFYqEUvpnX-94" value="Conv2D(32, &quot;same&quot;)" style="rounded=1;fillColor=#169fda;strokeColor=default;shadow=0;gradientColor=none;fontStyle=1;fontColor=#FFFFFF;fontSize=14;" vertex="1" parent="1">
          <mxGeometry x="750" y="630" width="140" height="30" as="geometry" />
        </mxCell>
        <mxCell id="SRwk9jK4E6UFYqEUvpnX-95" value="MaxPooling2D" style="rounded=1;fillColor=#169fda;strokeColor=default;shadow=0;gradientColor=none;fontStyle=1;fontColor=#FFFFFF;fontSize=14;" vertex="1" parent="1">
          <mxGeometry x="750" y="750" width="140" height="30" as="geometry" />
        </mxCell>
        <mxCell id="SRwk9jK4E6UFYqEUvpnX-96" value="BatchNormalization" style="rounded=1;fillColor=#169fda;strokeColor=default;shadow=0;gradientColor=none;fontStyle=1;fontColor=#FFFFFF;fontSize=14;" vertex="1" parent="1">
          <mxGeometry x="750" y="660" width="140" height="30" as="geometry" />
        </mxCell>
        <mxCell id="SRwk9jK4E6UFYqEUvpnX-97" value="Conv2D(32, &quot;same&quot;)" style="rounded=1;fillColor=#169fda;strokeColor=default;shadow=0;gradientColor=none;fontStyle=1;fontColor=#FFFFFF;fontSize=14;" vertex="1" parent="1">
          <mxGeometry x="750" y="690" width="140" height="30" as="geometry" />
        </mxCell>
        <mxCell id="SRwk9jK4E6UFYqEUvpnX-98" value="BatchNormalization" style="rounded=1;fillColor=#169fda;strokeColor=default;shadow=0;gradientColor=none;fontStyle=1;fontColor=#FFFFFF;fontSize=14;" vertex="1" parent="1">
          <mxGeometry x="750" y="720" width="140" height="30" as="geometry" />
        </mxCell>
        <mxCell id="SRwk9jK4E6UFYqEUvpnX-99" value="Dropout(0.2)" style="rounded=1;fillColor=#169fda;strokeColor=default;shadow=0;gradientColor=none;fontStyle=1;fontColor=#FFFFFF;fontSize=14;" vertex="1" parent="1">
          <mxGeometry x="750" y="780" width="140" height="30" as="geometry" />
        </mxCell>
        <mxCell id="SRwk9jK4E6UFYqEUvpnX-100" value="Conv2D(64, &quot;same&quot;)" style="rounded=1;fillColor=#169fda;strokeColor=default;shadow=0;gradientColor=none;fontStyle=1;fontColor=#FFFFFF;fontSize=14;" vertex="1" parent="1">
          <mxGeometry x="750" y="810" width="140" height="30" as="geometry" />
        </mxCell>
        <mxCell id="SRwk9jK4E6UFYqEUvpnX-101" value="BatchNormalization" style="rounded=1;fillColor=#169fda;strokeColor=default;shadow=0;gradientColor=none;fontStyle=1;fontColor=#FFFFFF;fontSize=14;" vertex="1" parent="1">
          <mxGeometry x="750" y="840" width="140" height="30" as="geometry" />
        </mxCell>
        <mxCell id="SRwk9jK4E6UFYqEUvpnX-102" value="Conv2D(64, &quot;same&quot;)" style="rounded=1;fillColor=#169fda;strokeColor=default;shadow=0;gradientColor=none;fontStyle=1;fontColor=#FFFFFF;fontSize=14;" vertex="1" parent="1">
          <mxGeometry x="750" y="870" width="140" height="30" as="geometry" />
        </mxCell>
        <mxCell id="SRwk9jK4E6UFYqEUvpnX-103" value="BatchNormalization" style="rounded=1;fillColor=#169fda;strokeColor=default;shadow=0;gradientColor=none;fontStyle=1;fontColor=#FFFFFF;fontSize=14;" vertex="1" parent="1">
          <mxGeometry x="750" y="900" width="140" height="30" as="geometry" />
        </mxCell>
        <mxCell id="SRwk9jK4E6UFYqEUvpnX-104" value="MaxPooling2D" style="rounded=1;fillColor=#169fda;strokeColor=default;shadow=0;gradientColor=none;fontStyle=1;fontColor=#FFFFFF;fontSize=14;" vertex="1" parent="1">
          <mxGeometry x="750" y="930" width="140" height="30" as="geometry" />
        </mxCell>
        <mxCell id="SRwk9jK4E6UFYqEUvpnX-105" value="Dropout(0.3)" style="rounded=1;fillColor=#169fda;strokeColor=default;shadow=0;gradientColor=none;fontStyle=1;fontColor=#FFFFFF;fontSize=14;" vertex="1" parent="1">
          <mxGeometry x="750" y="960" width="140" height="30" as="geometry" />
        </mxCell>
        <mxCell id="SRwk9jK4E6UFYqEUvpnX-108" value="Flatten" style="rounded=1;fillColor=#169fda;strokeColor=default;shadow=0;gradientColor=none;fontStyle=1;fontColor=#FFFFFF;fontSize=14;" vertex="1" parent="1">
          <mxGeometry x="750" y="990" width="140" height="30" as="geometry" />
        </mxCell>
        <mxCell id="SRwk9jK4E6UFYqEUvpnX-109" value="Dense(128)" style="rounded=1;fillColor=#169fda;strokeColor=default;shadow=0;gradientColor=none;fontStyle=1;fontColor=#FFFFFF;fontSize=14;" vertex="1" parent="1">
          <mxGeometry x="750" y="1020" width="140" height="30" as="geometry" />
        </mxCell>
        <mxCell id="SRwk9jK4E6UFYqEUvpnX-113" value="Dropout(0.4)" style="rounded=1;fillColor=#169fda;strokeColor=default;shadow=0;gradientColor=none;fontStyle=1;fontColor=#FFFFFF;fontSize=14;" vertex="1" parent="1">
          <mxGeometry x="750" y="1050" width="140" height="30" as="geometry" />
        </mxCell>
        <mxCell id="SRwk9jK4E6UFYqEUvpnX-114" value="Dense(3)" style="rounded=1;fillColor=#169fda;strokeColor=default;shadow=0;gradientColor=none;fontStyle=1;fontColor=#FFFFFF;fontSize=14;" vertex="1" parent="1">
          <mxGeometry x="750" y="1080" width="140" height="30" as="geometry" />
        </mxCell>
        <mxCell id="SRwk9jK4E6UFYqEUvpnX-115" value="Rescaling(1/255)" style="rounded=1;fillColor=#169fda;strokeColor=default;shadow=0;gradientColor=none;fontStyle=1;fontColor=#FFFFFF;fontSize=14;" vertex="1" parent="1">
          <mxGeometry x="920" y="600" width="140" height="30" as="geometry" />
        </mxCell>
        <mxCell id="SRwk9jK4E6UFYqEUvpnX-116" value="Conv2D(32, &quot;same&quot;)" style="rounded=1;fillColor=#169fda;strokeColor=default;shadow=0;gradientColor=none;fontStyle=1;fontColor=#FFFFFF;fontSize=14;" vertex="1" parent="1">
          <mxGeometry x="920" y="630" width="140" height="30" as="geometry" />
        </mxCell>
        <mxCell id="SRwk9jK4E6UFYqEUvpnX-117" value="MaxPooling2D" style="rounded=1;fillColor=#169fda;strokeColor=default;shadow=0;gradientColor=none;fontStyle=1;fontColor=#FFFFFF;fontSize=14;" vertex="1" parent="1">
          <mxGeometry x="920" y="750" width="140" height="30" as="geometry" />
        </mxCell>
        <mxCell id="SRwk9jK4E6UFYqEUvpnX-118" value="BatchNormalization" style="rounded=1;fillColor=#169fda;strokeColor=default;shadow=0;gradientColor=none;fontStyle=1;fontColor=#FFFFFF;fontSize=14;" vertex="1" parent="1">
          <mxGeometry x="920" y="660" width="140" height="30" as="geometry" />
        </mxCell>
        <mxCell id="SRwk9jK4E6UFYqEUvpnX-119" value="Conv2D(32, &quot;same&quot;)" style="rounded=1;fillColor=#169fda;strokeColor=default;shadow=0;gradientColor=none;fontStyle=1;fontColor=#FFFFFF;fontSize=14;" vertex="1" parent="1">
          <mxGeometry x="920" y="690" width="140" height="30" as="geometry" />
        </mxCell>
        <mxCell id="SRwk9jK4E6UFYqEUvpnX-120" value="BatchNormalization" style="rounded=1;fillColor=#169fda;strokeColor=default;shadow=0;gradientColor=none;fontStyle=1;fontColor=#FFFFFF;fontSize=14;" vertex="1" parent="1">
          <mxGeometry x="920" y="720" width="140" height="30" as="geometry" />
        </mxCell>
        <mxCell id="SRwk9jK4E6UFYqEUvpnX-121" value="Dropout(0.4)" style="rounded=1;fillColor=#169fda;strokeColor=default;shadow=0;gradientColor=none;fontStyle=1;fontColor=#FF3333;fontSize=14;" vertex="1" parent="1">
          <mxGeometry x="920" y="780" width="140" height="30" as="geometry" />
        </mxCell>
        <mxCell id="SRwk9jK4E6UFYqEUvpnX-122" value="Conv2D(64, &quot;same&quot;)" style="rounded=1;fillColor=#169fda;strokeColor=default;shadow=0;gradientColor=none;fontStyle=1;fontColor=#FFFFFF;fontSize=14;" vertex="1" parent="1">
          <mxGeometry x="920" y="810" width="140" height="30" as="geometry" />
        </mxCell>
        <mxCell id="SRwk9jK4E6UFYqEUvpnX-123" value="BatchNormalization" style="rounded=1;fillColor=#169fda;strokeColor=default;shadow=0;gradientColor=none;fontStyle=1;fontColor=#FFFFFF;fontSize=14;" vertex="1" parent="1">
          <mxGeometry x="920" y="840" width="140" height="30" as="geometry" />
        </mxCell>
        <mxCell id="SRwk9jK4E6UFYqEUvpnX-124" value="Conv2D(64, &quot;same&quot;)" style="rounded=1;fillColor=#169fda;strokeColor=default;shadow=0;gradientColor=none;fontStyle=1;fontColor=#FFFFFF;fontSize=14;" vertex="1" parent="1">
          <mxGeometry x="920" y="870" width="140" height="30" as="geometry" />
        </mxCell>
        <mxCell id="SRwk9jK4E6UFYqEUvpnX-125" value="BatchNormalization" style="rounded=1;fillColor=#169fda;strokeColor=default;shadow=0;gradientColor=none;fontStyle=1;fontColor=#FFFFFF;fontSize=14;" vertex="1" parent="1">
          <mxGeometry x="920" y="900" width="140" height="30" as="geometry" />
        </mxCell>
        <mxCell id="SRwk9jK4E6UFYqEUvpnX-126" value="MaxPooling2D" style="rounded=1;fillColor=#169fda;strokeColor=default;shadow=0;gradientColor=none;fontStyle=1;fontColor=#FFFFFF;fontSize=14;" vertex="1" parent="1">
          <mxGeometry x="920" y="930" width="140" height="30" as="geometry" />
        </mxCell>
        <mxCell id="SRwk9jK4E6UFYqEUvpnX-127" value="Dropout(0.5)" style="rounded=1;fillColor=#169fda;strokeColor=default;shadow=0;gradientColor=none;fontStyle=1;fontColor=#FF0000;fontSize=14;" vertex="1" parent="1">
          <mxGeometry x="920" y="960" width="140" height="30" as="geometry" />
        </mxCell>
        <mxCell id="SRwk9jK4E6UFYqEUvpnX-128" value="Flatten" style="rounded=1;fillColor=#169fda;strokeColor=default;shadow=0;gradientColor=none;fontStyle=1;fontColor=#FFFFFF;fontSize=14;" vertex="1" parent="1">
          <mxGeometry x="920" y="990" width="140" height="30" as="geometry" />
        </mxCell>
        <mxCell id="SRwk9jK4E6UFYqEUvpnX-129" value="Dense(128)" style="rounded=1;fillColor=#169fda;strokeColor=default;shadow=0;gradientColor=none;fontStyle=1;fontColor=#FFFFFF;fontSize=14;" vertex="1" parent="1">
          <mxGeometry x="920" y="1020" width="140" height="30" as="geometry" />
        </mxCell>
        <mxCell id="SRwk9jK4E6UFYqEUvpnX-130" value="Dropout(0.5)" style="rounded=1;fillColor=#169fda;strokeColor=default;shadow=0;gradientColor=none;fontStyle=1;fontColor=#FF3333;fontSize=14;" vertex="1" parent="1">
          <mxGeometry x="920" y="1050" width="140" height="30" as="geometry" />
        </mxCell>
        <mxCell id="SRwk9jK4E6UFYqEUvpnX-131" value="Dense(3)" style="rounded=1;fillColor=#169fda;strokeColor=default;shadow=0;gradientColor=none;fontStyle=1;fontColor=#FFFFFF;fontSize=14;" vertex="1" parent="1">
          <mxGeometry x="920" y="1080" width="140" height="30" as="geometry" />
        </mxCell>
        <mxCell id="SRwk9jK4E6UFYqEUvpnX-132" value="Model V4" style="rounded=1;fillColor=#f8cecc;strokeColor=#b85450;shadow=0;fontStyle=1;fontSize=14;" vertex="1" parent="1">
          <mxGeometry x="760" y="550" width="120" height="30" as="geometry" />
        </mxCell>
        <mxCell id="SRwk9jK4E6UFYqEUvpnX-133" value="Model V5" style="rounded=1;fillColor=#f8cecc;strokeColor=#b85450;shadow=0;fontStyle=1;fontSize=14;" vertex="1" parent="1">
          <mxGeometry x="930" y="550" width="120" height="30" as="geometry" />
        </mxCell>
        <mxCell id="SRwk9jK4E6UFYqEUvpnX-134" value="&lt;font style=&quot;font-size: 15px;&quot;&gt;*activation function always &quot;relu&quot; except last layer, where &quot;softmax&quot; was used&lt;/font&gt;" style="text;strokeColor=none;align=center;fillColor=none;html=1;verticalAlign=middle;whiteSpace=wrap;rounded=0;" vertex="1" parent="1">
          <mxGeometry x="240" y="1230" width="820" height="30" as="geometry" />
        </mxCell>
        <mxCell id="SRwk9jK4E6UFYqEUvpnX-135" value="&lt;font style=&quot;font-size: 14px;&quot;&gt;Param: 8.455.459&lt;br&gt;&lt;/font&gt;" style="text;strokeColor=none;align=center;fillColor=none;html=1;verticalAlign=middle;whiteSpace=wrap;rounded=0;" vertex="1" parent="1">
          <mxGeometry x="927.5" y="1120" width="125" height="40" as="geometry" />
        </mxCell>
        <mxCell id="SRwk9jK4E6UFYqEUvpnX-136" value="&lt;font style=&quot;font-size: 14px;&quot;&gt;Param: 8.455.459&lt;br&gt;&lt;/font&gt;" style="text;strokeColor=none;align=center;fillColor=none;html=1;verticalAlign=middle;whiteSpace=wrap;rounded=0;" vertex="1" parent="1">
          <mxGeometry x="765" y="1120" width="125" height="40" as="geometry" />
        </mxCell>
        <mxCell id="SRwk9jK4E6UFYqEUvpnX-137" value="&lt;font style=&quot;font-size: 14px;&quot;&gt;Param: 8.455.459&lt;br&gt;&lt;/font&gt;" style="text;strokeColor=none;align=center;fillColor=none;html=1;verticalAlign=middle;whiteSpace=wrap;rounded=0;" vertex="1" parent="1">
          <mxGeometry x="585" y="1120" width="125" height="40" as="geometry" />
        </mxCell>
        <mxCell id="SRwk9jK4E6UFYqEUvpnX-138" value="&lt;font style=&quot;font-size: 14px;&quot;&gt;Param: 7.393.091&lt;br&gt;&lt;/font&gt;" style="text;strokeColor=none;align=center;fillColor=none;html=1;verticalAlign=middle;whiteSpace=wrap;rounded=0;" vertex="1" parent="1">
          <mxGeometry x="420" y="1120" width="125" height="40" as="geometry" />
        </mxCell>
        <mxCell id="SRwk9jK4E6UFYqEUvpnX-139" value="&lt;div align=&quot;left&quot; style=&quot;font-size: 14px;&quot;&gt;&lt;font style=&quot;font-size: 14px;&quot;&gt;Loss:0.371&lt;/font&gt;&lt;/div&gt;&lt;div align=&quot;left&quot; style=&quot;font-size: 14px;&quot;&gt;&lt;font style=&quot;font-size: 14px;&quot;&gt;&lt;font style=&quot;font-size: 14px;&quot;&gt;Test Acc: 0.889&lt;/font&gt;&lt;br&gt;&lt;/font&gt;&lt;/div&gt;" style="text;strokeColor=none;align=left;fillColor=none;html=1;verticalAlign=middle;whiteSpace=wrap;rounded=0;" vertex="1" parent="1">
          <mxGeometry x="255" y="1150" width="125" height="40" as="geometry" />
        </mxCell>
        <mxCell id="SRwk9jK4E6UFYqEUvpnX-140" value="&lt;div align=&quot;left&quot; style=&quot;font-size: 14px;&quot;&gt;&lt;font style=&quot;font-size: 14px;&quot;&gt;Loss:0.157&lt;/font&gt;&lt;/div&gt;&lt;div align=&quot;left&quot; style=&quot;font-size: 14px;&quot;&gt;&lt;font style=&quot;font-size: 14px;&quot;&gt;&lt;font style=&quot;font-size: 14px;&quot;&gt;Test Acc: 0.948&lt;/font&gt;&lt;br&gt;&lt;/font&gt;&lt;/div&gt;" style="text;strokeColor=none;align=left;fillColor=none;html=1;verticalAlign=middle;whiteSpace=wrap;rounded=0;" vertex="1" parent="1">
          <mxGeometry x="425" y="1150" width="125" height="40" as="geometry" />
        </mxCell>
        <mxCell id="SRwk9jK4E6UFYqEUvpnX-141" value="&lt;div align=&quot;left&quot; style=&quot;font-size: 14px;&quot;&gt;&lt;font style=&quot;font-size: 14px;&quot;&gt;Loss:0.238&lt;/font&gt;&lt;/div&gt;&lt;div align=&quot;left&quot; style=&quot;font-size: 14px;&quot;&gt;&lt;font style=&quot;font-size: 14px;&quot;&gt;&lt;font style=&quot;font-size: 14px;&quot;&gt;Test Acc: 0.909&lt;/font&gt;&lt;br&gt;&lt;/font&gt;&lt;/div&gt;" style="text;strokeColor=none;align=left;fillColor=none;html=1;verticalAlign=middle;whiteSpace=wrap;rounded=0;" vertex="1" parent="1">
          <mxGeometry x="590" y="1150" width="125" height="40" as="geometry" />
        </mxCell>
        <mxCell id="SRwk9jK4E6UFYqEUvpnX-142" value="&lt;div align=&quot;left&quot; style=&quot;font-size: 14px;&quot;&gt;&lt;font style=&quot;font-size: 14px;&quot;&gt;Loss:0.168&lt;/font&gt;&lt;/div&gt;&lt;div align=&quot;left&quot; style=&quot;font-size: 14px;&quot;&gt;&lt;font style=&quot;font-size: 14px;&quot;&gt;&lt;font style=&quot;font-size: 14px;&quot;&gt;Test Acc: 0.948&lt;/font&gt;&lt;br&gt;&lt;/font&gt;&lt;/div&gt;" style="text;strokeColor=none;align=left;fillColor=none;html=1;verticalAlign=middle;whiteSpace=wrap;rounded=0;" vertex="1" parent="1">
          <mxGeometry x="770" y="1150" width="125" height="40" as="geometry" />
        </mxCell>
        <mxCell id="SRwk9jK4E6UFYqEUvpnX-143" value="&lt;div align=&quot;left&quot; style=&quot;font-size: 14px;&quot;&gt;&lt;font style=&quot;font-size: 14px;&quot;&gt;Loss:0.166&lt;/font&gt;&lt;/div&gt;&lt;div align=&quot;left&quot; style=&quot;font-size: 14px;&quot;&gt;&lt;font style=&quot;font-size: 14px;&quot;&gt;&lt;font style=&quot;font-size: 14px;&quot;&gt;Test Acc: 0.949&lt;/font&gt;&lt;br&gt;&lt;/font&gt;&lt;/div&gt;" style="text;strokeColor=none;align=left;fillColor=none;html=1;verticalAlign=middle;whiteSpace=wrap;rounded=0;" vertex="1" parent="1">
          <mxGeometry x="935" y="1150" width="125" height="40" as="geometry" />
        </mxCell>
      </root>
    </mxGraphModel>
  </diagram>
</mxfile>
